<?xml version="1.0" standalone="no"?>
<!DOCTYPE svg PUBLIC "-//W3C//DTD SVG 20010904//EN"
 "http://www.w3.org/TR/2001/REC-SVG-20010904/DTD/svg10.dtd">
<svg version="1.0" xmlns="http://www.w3.org/2000/svg"
 width="114.000000pt" height="114.000000pt" viewBox="0 0 114.000000 114.000000"
 preserveAspectRatio="xMidYMid meet">
<metadata>
Created by potrace 1.14, written by Peter Selinger 2001-2017
</metadata>
<g transform="translate(0.000000,114.000000) scale(0.100000,-0.100000)"
fill="#000000" stroke="none">
<path d="M603 1125 c-18 -8 -33 -12 -33 -9 0 3 -14 -4 -30 -16 -38 -27 -90
-35 -90 -14 0 8 -4 12 -10 9 -5 -3 -10 -2 -10 3 0 5 -6 9 -12 10 -7 1 -37 7
-65 14 -29 6 -56 8 -60 4 -5 -5 -2 -11 5 -13 22 -8 52 -46 52 -65 0 -24 -31
-59 -44 -50 -6 4 -46 9 -88 12 -57 4 -79 2 -83 -7 -2 -7 -13 -13 -24 -13 -11
0 -35 -9 -53 -20 l-33 -20 72 0 c39 0 75 -5 78 -10 4 -7 13 -7 26 0 13 8 19 7
19 0 0 -6 4 -9 9 -5 5 3 13 0 16 -6 4 -5 13 -8 20 -5 7 2 22 -6 33 -19 22 -25
22 -33 0 -165 -6 -36 -18 -75 -26 -87 -8 -13 -10 -23 -6 -23 5 0 2 -5 -6 -10
-8 -5 -10 -10 -5 -10 13 0 17 -38 5 -45 -5 -3 -6 -13 -3 -22 4 -10 2 -14 -4
-10 -6 4 -16 -12 -23 -36 -8 -23 -16 -46 -19 -52 -8 -15 -7 -48 2 -67 6 -14 4
-16 -10 -11 -16 6 -16 5 -4 -10 7 -9 11 -17 7 -17 -16 0 35 -77 62 -93 l30
-17 -16 -50 c-9 -28 -19 -50 -24 -50 -4 0 -8 -7 -8 -15 0 -9 -6 -28 -14 -43
-7 -15 -17 -37 -20 -49 l-7 -23 321 0 321 0 25 30 c22 25 28 28 52 19 18 -7
41 -6 75 2 l49 11 -26 17 -25 17 29 19 c16 11 24 22 19 26 -7 4 -6 11 3 20 7
8 28 34 46 57 l33 42 -37 -25 c-40 -27 -56 -26 -33 2 10 12 -1 9 -35 -10 -27
-15 -50 -26 -52 -24 -2 2 4 16 12 32 l15 30 -32 -30 -32 -30 6 40 6 39 -18
-29 c-28 -47 -54 -123 -48 -140 4 -9 1 -15 -9 -15 -9 0 -25 -11 -36 -25 -31
-40 -28 -43 -86 87 l-31 68 42 25 c23 14 38 25 32 25 -5 0 -3 6 6 13 20 15 31
57 16 57 -9 0 -9 2 -1 8 23 14 -12 172 -38 172 -5 0 -6 5 -3 10 3 6 1 10 -5
10 -6 0 -9 4 -5 9 3 5 0 22 -7 37 -10 22 -10 28 0 32 10 3 9 9 -5 24 -14 16
-18 41 -21 127 l-4 108 79 46 c44 26 94 52 111 58 18 6 32 16 32 21 0 12 -166
5 -210 -8 -21 -6 -23 -5 -13 7 8 10 9 20 3 29 -7 10 -10 11 -10 3 0 -7 -4 -13
-10 -13 -5 0 -10 9 -10 21 0 14 -5 19 -14 16 -29 -12 -22 45 8 65 20 14 -58 7
-91 -7z"/>
<path d="M750 1055 c-16 -19 -1 -19 24 0 16 12 17 15 4 15 -8 0 -21 -7 -28
-15z"/>
</g>
</svg>
